<?xml version="1.0" encoding="utf-8"?>
<!-- Generator: Adobe Illustrator 16.0.0, SVG Export Plug-In . SVG Version: 6.00 Build 0)  -->
<!DOCTYPE svg PUBLIC "-//W3C//DTD SVG 1.1//EN" "http://www.w3.org/Graphics/SVG/1.1/DTD/svg11.dtd">
<svg version="1.1" id="Calque_1" xmlns="http://www.w3.org/2000/svg" xmlns:xlink="http://www.w3.org/1999/xlink" x="0px" y="0px"
	 width="78.748px" height="91.243px" viewBox="0 0 78.748 91.243" enable-background="new 0 0 78.748 91.243" xml:space="preserve">
<g id="Calque_1_1_">
</g>
<g id="Calque_2">
</g>
<g>
	<rect x="1.5" y="1.5" fill="none" stroke="#1D1D1B" stroke-width="3" stroke-miterlimit="10" width="35.537" height="88.243"/>
	<path fill="#1D1D1B" d="M1.5,1.5v88.243h35.537V1.5H1.5z M5.668,10.803h27v7.73h-27V10.803z M5.668,31.439h27v7.73h-27V31.439z
		 M5.668,52.075h27v7.729h-27V52.075z M32.668,80.44h-27v-7.729h27V80.44z M32.871,70.124H5.668v-7.73h27.203V70.124z
		 M32.871,49.486H5.668v-7.73h27.203V49.486z M32.871,28.851H5.668v-7.73h27.203V28.851z"/>
	<rect x="41.711" y="1.5" fill="none" stroke="#1D1D1B" stroke-width="3" stroke-miterlimit="10" width="35.537" height="88.243"/>
	<path fill="#1D1D1B" d="M41.711,1.5v88.243h35.537V1.5H41.711z M45.879,10.803h27v7.73h-27V10.803z M45.879,31.439h27v7.73h-27
		V31.439z M45.879,52.075h27v7.729h-27V52.075z M72.879,80.44h-27v-7.729h27V80.44z M73.082,70.124H45.879v-7.73h27.203V70.124z
		 M73.082,49.486H45.879v-7.73h27.203V49.486z M73.082,28.851H45.879v-7.73h27.203V28.851z"/>
	<g id="Calque_4">
	</g>
</g>
</svg>
