<?xml version="1.0" encoding="utf-8"?>
<!-- Generator: Adobe Illustrator 16.0.0, SVG Export Plug-In . SVG Version: 6.00 Build 0)  -->
<!DOCTYPE svg PUBLIC "-//W3C//DTD SVG 1.1//EN" "http://www.w3.org/Graphics/SVG/1.1/DTD/svg11.dtd">
<svg version="1.1" id="Calque_1" xmlns="http://www.w3.org/2000/svg" xmlns:xlink="http://www.w3.org/1999/xlink" x="0px" y="0px"
	 width="102.168px" height="101.914px" viewBox="0 0 102.168 101.914" enable-background="new 0 0 102.168 101.914"
	 xml:space="preserve">
<g id="Calque_1_1_">
</g>
<g id="Calque_2">
</g>
<path fill="none" stroke="#1D1D1B" stroke-width="3" stroke-miterlimit="10" d="M49.168,94.452c0,3.292-2.67,5.962-5.961,5.962
	H7.461c-3.291,0-5.961-2.67-5.961-5.962V58.708c0-3.292,2.67-5.962,5.961-5.962h35.746c3.291,0,5.961,2.67,5.961,5.962V94.452z"/>
<path fill="none" stroke="#1D1D1B" stroke-width="3" stroke-miterlimit="10" d="M74.918,43.206c0,3.292-2.67,5.962-5.961,5.962
	H33.211c-3.291,0-5.961-2.67-5.961-5.962V7.462c0-3.292,2.67-5.962,5.961-5.962h35.746c3.291,0,5.961,2.67,5.961,5.962V43.206z"/>
<circle fill="#1D1D1B" cx="51.085" cy="25.334" r="15.298"/>
<circle fill="#1D1D1B" cx="25.335" cy="76.58" r="15.298"/>
<path fill="none" stroke="#1D1D1B" stroke-width="3" stroke-miterlimit="10" d="M100.668,94.452c0,3.292-2.67,5.962-5.961,5.962
	H58.961c-3.291,0-5.961-2.67-5.961-5.962V58.708c0-3.292,2.67-5.962,5.961-5.962h35.746c3.291,0,5.961,2.67,5.961,5.962V94.452z"/>
<circle fill="#1D1D1B" cx="76.835" cy="76.58" r="15.298"/>
<g id="Calque_4">
</g>
</svg>
