<?xml version="1.0" encoding="utf-8"?>
<!-- Generator: Adobe Illustrator 16.0.0, SVG Export Plug-In . SVG Version: 6.00 Build 0)  -->
<!DOCTYPE svg PUBLIC "-//W3C//DTD SVG 1.1//EN" "http://www.w3.org/Graphics/SVG/1.1/DTD/svg11.dtd">
<svg version="1.1" xmlns="http://www.w3.org/2000/svg" xmlns:xlink="http://www.w3.org/1999/xlink" x="0px" y="0px"
	 width="106.162px" height="114.92px" viewBox="0 0 106.162 114.92" enable-background="new 0 0 106.162 114.92"
	 xml:space="preserve">
<g id="Calque_1">
</g>
<g id="Calque_2">
</g>
<g id="Calque_3">
	<g>
		<g>
			
				<rect x="1.5" y="1.501" fill="#1D1D1B" stroke="#1D1D1B" stroke-width="3" stroke-miterlimit="10" width="48.289" height="111.92"/>
			<rect x="1.5" y="4.519" fill="#FFFFFF" width="48.289" height="6.791"/>
			<rect x="1.5" y="41.239" fill="#FFFFFF" width="48.289" height="6.791"/>
			<rect x="1.5" y="79.468" fill="#FFFFFF" width="48.289" height="6.791"/>
			<rect x="4.078" y="14.644" fill="#1D1D1B" stroke="#FFFFFF" stroke-miterlimit="10" width="17.543" height="6.979"/>
			<rect x="4.078" y="51.364" fill="#1D1D1B" stroke="#FFFFFF" stroke-miterlimit="10" width="17.543" height="6.979"/>
			<rect x="4.078" y="89.591" fill="#1D1D1B" stroke="#FFFFFF" stroke-miterlimit="10" width="17.543" height="6.98"/>
		</g>
		<g>
			
				<rect x="56.373" y="1.501" fill="#1D1D1B" stroke="#1D1D1B" stroke-width="3" stroke-miterlimit="10" width="48.289" height="111.92"/>
			<rect x="56.373" y="4.519" fill="#FFFFFF" width="48.289" height="6.791"/>
			<rect x="56.373" y="41.239" fill="#FFFFFF" width="48.289" height="6.791"/>
			<rect x="56.373" y="79.468" fill="#FFFFFF" width="48.289" height="6.791"/>
			<rect x="58.951" y="14.644" fill="#1D1D1B" stroke="#FFFFFF" stroke-miterlimit="10" width="17.543" height="6.979"/>
			<rect x="58.951" y="51.364" fill="#1D1D1B" stroke="#FFFFFF" stroke-miterlimit="10" width="17.543" height="6.979"/>
			<rect x="58.951" y="89.591" fill="#1D1D1B" stroke="#FFFFFF" stroke-miterlimit="10" width="17.543" height="6.98"/>
		</g>
	</g>
</g>
<g id="Calque_4">
</g>
</svg>
