<?xml version="1.0" encoding="utf-8"?>
<!-- Generator: Adobe Illustrator 16.0.0, SVG Export Plug-In . SVG Version: 6.00 Build 0)  -->
<!DOCTYPE svg PUBLIC "-//W3C//DTD SVG 1.1//EN" "http://www.w3.org/Graphics/SVG/1.1/DTD/svg11.dtd">
<svg version="1.1" id="Calque_1" xmlns="http://www.w3.org/2000/svg" xmlns:xlink="http://www.w3.org/1999/xlink" x="0px" y="0px"
	 width="44.473px" height="105.094px" viewBox="0 0 44.473 105.094" enable-background="new 0 0 44.473 105.094"
	 xml:space="preserve">
<g id="Calque_1_1_">
</g>
<g id="Calque_2">
</g>
<g id="Calque_3">
	<path fill="#231F20" d="M42.545,0h-1.246c-1.064,0-1.928,0.361-1.928,0.808v1.169H19.719h-3.957H4.434
		c-0.947,0-1.711,0.324-1.711,0.725v27.52c0,0.399,0.764,0.725,1.711,0.725h1.689v2.494H2.209C0.988,33.438,0,34.325,0,35.417
		v67.698c0,1.093,0.987,1.979,2.209,1.979h19.731c1.222,0,2.209-0.886,2.209-1.979V35.417c0-1.092-0.987-1.979-2.209-1.979h-3.914
		v-2.494h1.691c0.945,0,1.711-0.324,1.711-0.725V7.078H39.37v1.168c0,0.447,0.862,0.809,1.928,0.809h1.246
		c1.063,0,1.928-0.36,1.928-0.809V0.808h0.001C44.473,0.361,43.609,0,42.545,0z M24.118,43.302v50.17h-7.088
		c-1.063,0-1.928-0.862-1.928-1.928V45.23c0-1.064,0.863-1.928,1.928-1.928H24.118z"/>
</g>
<g id="Calque_4">
</g>
</svg>
