<?xml version="1.0" encoding="utf-8"?>
<!-- Generator: Adobe Illustrator 16.0.0, SVG Export Plug-In . SVG Version: 6.00 Build 0)  -->
<!DOCTYPE svg PUBLIC "-//W3C//DTD SVG 1.1//EN" "http://www.w3.org/Graphics/SVG/1.1/DTD/svg11.dtd">
<svg version="1.1" xmlns="http://www.w3.org/2000/svg" xmlns:xlink="http://www.w3.org/1999/xlink" x="0px" y="0px"
	 width="44.473px" height="105.094px" viewBox="0 0 44.473 105.094" enable-background="new 0 0 44.473 105.094"
	 xml:space="preserve">
<g id="Calque_1">
</g>
<g id="Calque_2">
</g>
<g id="Calque_3">
	<g>
		<path fill="#1D1D1B" d="M44.473,0.808C44.473,0.361,43.609,0,42.545,0h-1.246c-1.064,0-1.928,0.361-1.928,0.808v1.169H19.719
			h-3.957H4.434c-0.947,0-1.711,0.324-1.711,0.725v27.52c0,0.399,0.764,0.724,1.711,0.724h1.689v2.494H2.209
			C0.988,33.438,0,34.325,0,35.417v67.698c0,1.093,0.988,1.979,2.209,1.979h19.732c1.221,0,2.209-0.886,2.209-1.979V35.417
			c0-1.092-0.988-1.979-2.209-1.979h-3.914v-2.494h1.691c0.945,0,1.711-0.324,1.711-0.724V7.078h17.941v1.168
			c0,0.447,0.863,0.809,1.928,0.809h1.246c1.064,0,1.928-0.361,1.928-0.809V0.808z"/>
		<path fill="#FFFFFF" d="M29.049,91.544c0,1.064-0.863,1.928-1.93,1.928H17.031c-1.064,0-1.928-0.863-1.928-1.928V45.23
			c0-1.064,0.863-1.928,1.928-1.928h10.088c1.066,0,1.93,0.863,1.93,1.928V91.544z"/>
	</g>
</g>
<g id="Calque_4">
</g>
</svg>
