<?xml version="1.0" encoding="utf-8"?>
<!-- Generator: Adobe Illustrator 16.0.0, SVG Export Plug-In . SVG Version: 6.00 Build 0)  -->
<!DOCTYPE svg PUBLIC "-//W3C//DTD SVG 1.1//EN" "http://www.w3.org/Graphics/SVG/1.1/DTD/svg11.dtd">
<svg version="1.1" id="Calque_1" xmlns="http://www.w3.org/2000/svg" xmlns:xlink="http://www.w3.org/1999/xlink" x="0px" y="0px"
	 width="117.102px" height="60.047px" viewBox="0 0 117.102 60.047" enable-background="new 0 0 117.102 60.047"
	 xml:space="preserve">
<g id="Calque_1_1_">
</g>
<g id="Calque_2">
</g>
<rect x="3.633" y="1" fill="none" stroke="#1D1D1B" stroke-width="2" stroke-miterlimit="10" width="28.711" height="8.973"/>
<path fill="#1D1D1B" d="M31.268,17.881V9.973H4.709v7.908c-2.478,0-4.486,2.007-4.486,4.483c0,0.116,0,0.145,0,0.136v37.547h35.529
	V22.5v-0.136C35.752,19.887,33.744,17.881,31.268,17.881z M34.977,47.195H1v-17.74h33.977V47.195z"/>
<path fill="#1D1D1B" d="M33.977,30.455v15.74H2v-15.74H33.977 M35.977,28.455H0v19.74h35.977V28.455L35.977,28.455z"/>
<rect x="0" y="32.405" fill="#1D1D1B" width="35.977" height="5.92"/>
<rect x="44.195" y="1" fill="none" stroke="#1D1D1B" stroke-width="2" stroke-miterlimit="10" width="28.714" height="8.973"/>
<path fill="#1D1D1B" d="M71.83,17.881V9.973h-26.56v7.908c-2.477,0-4.483,2.007-4.483,4.483c0,0.116,0,0.145,0,0.136v37.547h35.526
	V22.5v-0.136C76.314,19.887,74.308,17.881,71.83,17.881z M75.54,47.195H41.563v-17.74H75.54V47.195z"/>
<path fill="#1D1D1B" d="M74.539,30.455v15.74H42.563v-15.74H74.539 M76.539,28.455H40.563v19.74H76.54L76.539,28.455L76.539,28.455z
	"/>
<rect x="40.563" y="32.405" fill="#1D1D1B" width="35.978" height="5.92"/>
<rect x="84.758" y="1" fill="none" stroke="#1D1D1B" stroke-width="2" stroke-miterlimit="10" width="28.713" height="8.973"/>
<path fill="#1D1D1B" d="M112.393,17.881V9.973H85.834v7.908c-2.478,0-4.484,2.007-4.484,4.483c0,0.116,0,0.145,0,0.136v37.547
	h35.529V22.5v-0.136C116.879,19.887,114.871,17.881,112.393,17.881z M116.102,47.195H82.125v-17.74h33.977V47.195z"/>
<path fill="#1D1D1B" d="M115.102,30.455v15.74H83.125v-15.74H115.102 M117.102,28.455H81.125v19.74h35.977V28.455L117.102,28.455z"
	/>
<rect x="81.125" y="32.405" fill="#1D1D1B" width="35.977" height="5.92"/>
</svg>
