<?xml version="1.0" encoding="utf-8"?>
<!-- Generator: Adobe Illustrator 16.0.0, SVG Export Plug-In . SVG Version: 6.00 Build 0)  -->
<!DOCTYPE svg PUBLIC "-//W3C//DTD SVG 1.1//EN" "http://www.w3.org/Graphics/SVG/1.1/DTD/svg11.dtd">
<svg version="1.1" xmlns="http://www.w3.org/2000/svg" xmlns:xlink="http://www.w3.org/1999/xlink" x="0px" y="0px"
	 width="123.232px" height="92.884px" viewBox="0 0 123.232 92.884" enable-background="new 0 0 123.232 92.884"
	 xml:space="preserve">
<g id="Calque_1">
</g>
<g id="Calque_2">
</g>
<g id="Calque_3">
	<g>
		<g>
			<polygon fill="#1D1D1B" stroke="#1D1D1B" stroke-width="2.5" stroke-miterlimit="10" points="113.815,75.007 93.446,75.007 
				85.114,1.25 121.838,1.25 			"/>
			
				<rect x="92.25" y="75.007" fill="#FFFFFF" stroke="#1D1D1B" stroke-width="2.5" stroke-miterlimit="10" width="22.451" height="16.047"/>
			
				<line fill="none" stroke="#1D1D1B" stroke-width="2.5" stroke-miterlimit="10" x1="95.247" y1="77.219" x2="95.247" y2="88.842"/>
			<line fill="none" stroke="#1D1D1B" stroke-width="2.5" stroke-miterlimit="10" x1="98.59" y1="77.219" x2="98.59" y2="88.842"/>
			
				<line fill="none" stroke="#1D1D1B" stroke-width="2.5" stroke-miterlimit="10" x1="101.934" y1="77.219" x2="101.934" y2="88.842"/>
			
				<line fill="none" stroke="#1D1D1B" stroke-width="2.5" stroke-miterlimit="10" x1="105.276" y1="77.219" x2="105.276" y2="88.842"/>
			
				<line fill="none" stroke="#1D1D1B" stroke-width="2.5" stroke-miterlimit="10" x1="108.62" y1="77.219" x2="108.62" y2="88.842"/>
			
				<line fill="none" stroke="#1D1D1B" stroke-width="2.5" stroke-miterlimit="10" x1="111.963" y1="77.219" x2="111.963" y2="88.842"/>
			<polygon fill="#FFFFFF" stroke="#1D1D1B" stroke-width="2.5" stroke-miterlimit="10" points="115.559,58.959 91.633,58.959 
				87.084,18.687 119.942,18.687 			"/>
		</g>
		<g>
			<polygon fill="#1D1D1B" stroke="#1D1D1B" stroke-width="2.5" stroke-miterlimit="10" points="13.678,64.712 27.938,79.041 
				85.659,33.266 59.948,7.431 			"/>
			
				<rect x="4.13" y="69.638" transform="matrix(-0.7054 -0.7088 0.7088 -0.7054 -28.964 143.1643)" fill="#FFFFFF" stroke="#1D1D1B" stroke-width="2.5" stroke-miterlimit="10" width="22.282" height="15.927"/>
			<line fill="none" stroke="#1D1D1B" stroke-width="2.5" stroke-miterlimit="10" x1="25.12" y1="79.323" x2="16.944" y2="87.461"/>
			<line fill="none" stroke="#1D1D1B" stroke-width="2.5" stroke-miterlimit="10" x1="22.78" y1="76.971" x2="14.604" y2="85.108"/>
			<line fill="none" stroke="#1D1D1B" stroke-width="2.5" stroke-miterlimit="10" x1="20.44" y1="74.619" x2="12.262" y2="82.756"/>
			<line fill="none" stroke="#1D1D1B" stroke-width="2.5" stroke-miterlimit="10" x1="18.1" y1="72.268" x2="9.922" y2="80.404"/>
			<line fill="none" stroke="#1D1D1B" stroke-width="2.5" stroke-miterlimit="10" x1="15.758" y1="69.916" x2="7.583" y2="78.053"/>
			<line fill="none" stroke="#1D1D1B" stroke-width="2.5" stroke-miterlimit="10" x1="13.418" y1="67.563" x2="5.241" y2="75.7"/>
			<polygon fill="#FFFFFF" stroke="#1D1D1B" stroke-width="2.5" stroke-miterlimit="10" points="23.747,52.249 40.497,69.081 
				72.014,44.088 49.008,20.971 			"/>
		</g>
	</g>
</g>
<g id="Calque_4">
</g>
</svg>
