<?xml version="1.0" encoding="utf-8"?>
<!-- Generator: Adobe Illustrator 16.0.0, SVG Export Plug-In . SVG Version: 6.00 Build 0)  -->
<!DOCTYPE svg PUBLIC "-//W3C//DTD SVG 1.1//EN" "http://www.w3.org/Graphics/SVG/1.1/DTD/svg11.dtd">
<svg version="1.1" id="Calque_1" xmlns="http://www.w3.org/2000/svg" xmlns:xlink="http://www.w3.org/1999/xlink" x="0px" y="0px"
	 width="54.189px" height="118.188px" viewBox="0 0 54.189 118.188" enable-background="new 0 0 54.189 118.188"
	 xml:space="preserve">
<g id="Calque_1_1_">
</g>
<g id="Calque_2">
</g>
<path fill="#231F20" d="M54.177,42.095v-0.16l-0.045-0.056c-0.047-0.113-0.121-0.205-0.215-0.283l-13.556-17.75v-2.83
	c0-0.601-0.067-1.186-0.171-1.76c3.685-0.875,6.319-3.164,6.319-5.857c0-0.172-0.02-0.342-0.04-0.511
	c0.021-0.168,0.04-0.338,0.04-0.51c0-3.448-4.309-6.244-9.62-6.244H17.299c-5.313,0-9.618,2.796-9.618,6.244
	c0,0.172,0.019,0.342,0.04,0.51c-0.021,0.169-0.04,0.338-0.04,0.511c0,2.693,2.634,4.982,6.316,5.857
	c-0.104,0.574-0.171,1.159-0.171,1.76v2.843L0.289,41.586c-0.104,0.081-0.188,0.183-0.236,0.31l-0.031,0.04v0.117
	C0.014,42.088,0,42.117,0,42.156c0,0.034,0.016,0.063,0.021,0.101v30.918v30.231v3.48c0,6.241,3.242,11.302,7.244,11.302h39.67
	c4.002,0,7.244-5.061,7.244-11.302v-3.48V73.173V42.212c0.002-0.022,0.011-0.037,0.011-0.058
	C54.189,42.133,54.179,42.117,54.177,42.095z M11.011,11.377c0-1.668,2.565-3.021,6.968-3.021h18.229c4.401,0,6.97,1.354,6.97,3.021
	c0,1.669-2.567,3.021-6.969,3.021h-18.23C13.577,14.398,11.011,13.045,11.011,11.377z M51.447,79.869
	c0,5.61-4.549,10.161-10.164,10.161H12.912c-5.611,0-10.162-4.551-10.162-10.161V66.134c0-5.612,4.551-10.162,10.162-10.162h28.371
	c5.615,0,10.164,4.55,10.164,10.162V79.869z"/>
<g id="Calque_4">
</g>
</svg>
