<?xml version="1.0" encoding="utf-8"?>
<!-- Generator: Adobe Illustrator 16.0.0, SVG Export Plug-In . SVG Version: 6.00 Build 0)  -->
<!DOCTYPE svg PUBLIC "-//W3C//DTD SVG 1.1//EN" "http://www.w3.org/Graphics/SVG/1.1/DTD/svg11.dtd">
<svg version="1.1" xmlns="http://www.w3.org/2000/svg" xmlns:xlink="http://www.w3.org/1999/xlink" x="0px" y="0px"
	 width="77.439px" height="97.523px" viewBox="0 0 77.439 97.523" enable-background="new 0 0 77.439 97.523" xml:space="preserve">
<g id="Calque_1">
</g>
<g id="Calque_2">
</g>
<g id="Calque_3">
	<g>
		<g>
			<path fill="#FFFFFF" stroke="#1D1D1B" stroke-width="3" stroke-miterlimit="10" d="M33.216,55.816
				c-1.205-3.815-3.375-9.122-3.375-9.122c0-0.367-0.068-0.717-0.156-1.059h4.096l-0.416-3.866
				c-0.145-2.381-0.535-8.982-0.535-11.546c0-3.152-4.029-3.467-4.029-3.467h-6.262V7.788H12.033v18.969c-2.691,0-5.496,0-6.816,0
				c-2.941,0-2.672,3.132-2.672,3.132L2.296,41.564l0,0l-0.205,4.071h3.283c-0.092,0.342-0.158,0.691-0.158,1.059
				c0,0-1.959,5.355-3.039,9.17c-0.402,0.626-0.646,1.365-0.646,2.165v0.536c-0.045,0.297-0.037,0.581,0,0.861v32.54
				c0,2.239,1.84,4.057,4.109,4.057h24.014c2.27,0,4.324-1.817,4.324-4.057V58.09C33.978,57.257,33.689,56.47,33.216,55.816z"/>
			<rect x="1.5" y="62.548" fill="#1D1D1B" width="32.479" height="27.916"/>
			<polygon fill="#1D1D1B" points="23.873,25.236 22.861,25.236 22.861,7.788 12.24,7.788 12.24,25.303 2.935,27.651 2.935,46.979 
				32.4,46.979 32.4,27.651 			"/>
			<rect x="2.935" y="65.409" fill="#FFFFFF" width="29.465" height="8.111"/>
			<circle fill="#1D1D1B" cx="17.332" cy="6.751" r="6.752"/>
		</g>
		<g>
			<path fill="#FFFFFF" stroke="#1D1D1B" stroke-width="3" stroke-miterlimit="10" d="M75.177,55.816
				c-1.205-3.815-3.375-9.122-3.375-9.122c0-0.367-0.066-0.717-0.156-1.059h4.096l-0.414-3.866
				c-0.146-2.381-0.535-8.982-0.535-11.546c0-3.152-4.029-3.467-4.029-3.467H64.5V7.788H53.996v18.969c-2.693,0-5.496,0-6.818,0
				c-2.941,0-2.67,3.132-2.67,3.132l-0.25,11.676l0,0l-0.203,4.071h3.281c-0.092,0.342-0.158,0.691-0.158,1.059
				c0,0-1.957,5.355-3.039,9.17c-0.402,0.626-0.645,1.365-0.645,2.165v0.536c-0.047,0.297-0.039,0.581,0,0.861v32.54
				c0,2.239,1.838,4.057,4.107,4.057h24.016c2.27,0,4.322-1.817,4.322-4.057V58.09C75.939,57.257,75.652,56.47,75.177,55.816z"/>
			<rect x="43.462" y="62.548" fill="#1D1D1B" width="32.477" height="27.916"/>
			<polygon fill="#1D1D1B" points="65.833,25.236 64.822,25.236 64.822,7.788 54.203,7.788 54.203,25.303 44.896,27.651 
				44.896,46.979 74.363,46.979 74.363,27.651 			"/>
			<rect x="44.896" y="65.409" fill="#FFFFFF" width="29.467" height="8.111"/>
			<circle fill="#1D1D1B" cx="59.293" cy="6.751" r="6.751"/>
		</g>
	</g>
</g>
<g id="Calque_4">
</g>
</svg>
