<?xml version="1.0" encoding="utf-8"?>
<!-- Generator: Adobe Illustrator 16.0.0, SVG Export Plug-In . SVG Version: 6.00 Build 0)  -->
<!DOCTYPE svg PUBLIC "-//W3C//DTD SVG 1.1//EN" "http://www.w3.org/Graphics/SVG/1.1/DTD/svg11.dtd">
<svg version="1.1" xmlns="http://www.w3.org/2000/svg" xmlns:xlink="http://www.w3.org/1999/xlink" x="0px" y="0px"
	 width="54.189px" height="118.188px" viewBox="0 0 54.189 118.188" enable-background="new 0 0 54.189 118.188"
	 xml:space="preserve">
<g id="Calque_1">
</g>
<g id="Calque_2">
</g>
<g id="Calque_3">
	<g>
		<path fill="#1D1D1B" d="M54.178,106.886c0,6.241-3.242,11.302-7.244,11.302H7.264c-4.002,0-7.244-5.061-7.244-11.302V73.173
			c0-6.242,3.242-11.302,7.244-11.302h39.67c4.002,0,7.244,5.06,7.244,11.302V106.886z"/>
		<path fill="#1D1D1B" d="M54.189,42.154c0-0.021-0.01-0.037-0.012-0.059v-0.16l-0.045-0.056c-0.045-0.113-0.121-0.205-0.213-0.283
			L40.223,23.663H13.975L0.289,41.586c-0.105,0.081-0.189,0.183-0.238,0.31l-0.031,0.04v0.117C0.014,42.088,0,42.117,0,42.154
			c0,0.036,0.014,0.065,0.02,0.101v61.149h54.158V42.212C54.18,42.19,54.189,42.175,54.189,42.154z"/>
		<path fill="#1D1D1B" d="M40.363,25.561c0,5.901-5.207,10.685-11.629,10.685h-3.279c-6.424,0-11.629-4.783-11.629-10.685v-4.545
			c0-5.901,5.205-10.685,11.629-10.685h3.279c6.422,0,11.629,4.783,11.629,10.685V25.561z"/>
		<path fill="#1D1D1B" stroke="#1D1D1B" stroke-width="3" stroke-miterlimit="10" d="M44.725,12.378c0,3.446-3.91,6.242-8.734,6.242
			H18.199c-4.824,0-8.734-2.796-8.734-6.242l0,0c0-3.448,3.91-6.244,8.734-6.244H35.99C40.814,6.134,44.725,8.93,44.725,12.378
			L44.725,12.378z"/>
		<path fill="#FFFFFF" d="M51.447,79.869c0,5.612-4.549,10.161-10.164,10.161H12.912c-5.613,0-10.162-4.549-10.162-10.161V66.134
			c0-5.612,4.549-10.162,10.162-10.162h28.371c5.615,0,10.164,4.55,10.164,10.162V79.869z"/>
		<path fill="#FFFFFF" d="M47.498,9.416c0,0.782-1.156,1.417-2.584,1.417H7.082c-1.428,0-2.584-0.635-2.584-1.417V1.417
			C4.498,0.635,5.654,0,7.082,0h37.832c1.428,0,2.584,0.635,2.584,1.417V9.416z"/>
		<path fill="#FFFFFF" stroke="#1D1D1B" stroke-width="3" stroke-miterlimit="10" d="M44.725,10.678c0,1.669-3.91,3.021-8.734,3.021
			H18.199c-4.824,0-8.734-1.353-8.734-3.021l0,0c0-1.668,3.91-3.021,8.734-3.021H35.99C40.814,7.657,44.725,9.01,44.725,10.678
			L44.725,10.678z"/>
	</g>
</g>
<g id="Calque_4">
</g>
</svg>
