<?xml version="1.0" encoding="utf-8"?>
<!-- Generator: Adobe Illustrator 16.0.0, SVG Export Plug-In . SVG Version: 6.00 Build 0)  -->
<!DOCTYPE svg PUBLIC "-//W3C//DTD SVG 1.1//EN" "http://www.w3.org/Graphics/SVG/1.1/DTD/svg11.dtd">
<svg version="1.1" id="Calque_1" xmlns="http://www.w3.org/2000/svg" xmlns:xlink="http://www.w3.org/1999/xlink" x="0px" y="0px"
	 width="106.162px" height="114.92px" viewBox="0 0 106.162 114.92" enable-background="new 0 0 106.162 114.92"
	 xml:space="preserve">
<g id="Calque_1_1_">
</g>
<g id="Calque_2">
</g>
<g id="Calque_4">
</g>
<g>
	<rect x="1.5" y="1.501" fill="none" stroke="#1D1D1B" stroke-width="3" stroke-miterlimit="10" width="48.289" height="111.92"/>
	<rect x="1.5" y="1.501" fill="#231F20" width="48.289" height="3.018"/>
	<path fill="#1D1D1B" d="M1.5,11.31v29.929h48.289V11.31H1.5z M21.621,21.623H4.078v-6.979h17.543V21.623z"/>
	<path fill="#1D1D1B" d="M1.5,48.03v31.438h48.289V48.03H1.5z M21.621,58.343H4.078v-6.979h17.543V58.343z"/>
	<path fill="#1D1D1B" d="M1.5,86.259v27.162h48.289V86.259H1.5z M21.621,96.571H4.078v-6.98h17.543V96.571z"/>
	<rect x="5.036" y="15.566" fill="#1D1D1B" width="15.591" height="5.103"/>
	<rect x="5.036" y="52.302" fill="#1D1D1B" width="15.591" height="5.104"/>
	<rect x="5.036" y="90.53" fill="#1D1D1B" width="15.591" height="5.102"/>
	
		<rect x="56.373" y="1.501" fill="none" stroke="#1D1D1B" stroke-width="3" stroke-miterlimit="10" width="48.289" height="111.92"/>
	<rect x="56.373" y="1.501" fill="#231F20" width="48.289" height="3.018"/>
	<path fill="#1D1D1B" d="M56.373,11.31v29.929h48.289V11.31H56.373z M76.493,21.623H58.95v-6.979h17.543V21.623z"/>
	<path fill="#1D1D1B" d="M56.373,48.03v31.438h48.289V48.03H56.373z M76.493,58.343H58.95v-6.979h17.543V58.343z"/>
	<path fill="#1D1D1B" d="M56.373,86.259v27.162h48.289V86.259H56.373z M76.493,96.571H58.95v-6.98h17.543V96.571z"/>
	<rect x="59.909" y="15.566" fill="#1D1D1B" width="15.59" height="5.103"/>
	<rect x="59.909" y="52.302" fill="#1D1D1B" width="15.59" height="5.104"/>
	<rect x="59.909" y="90.53" fill="#1D1D1B" width="15.59" height="5.102"/>
</g>
</svg>
