<?xml version="1.0" encoding="utf-8"?>
<!-- Generator: Adobe Illustrator 16.0.0, SVG Export Plug-In . SVG Version: 6.00 Build 0)  -->
<!DOCTYPE svg PUBLIC "-//W3C//DTD SVG 1.1//EN" "http://www.w3.org/Graphics/SVG/1.1/DTD/svg11.dtd">
<svg version="1.1" id="Calque_1" xmlns="http://www.w3.org/2000/svg" xmlns:xlink="http://www.w3.org/1999/xlink" x="0px" y="0px"
	 width="50.539px" height="102.414px" viewBox="0 0 50.539 102.414" enable-background="new 0 0 50.539 102.414"
	 xml:space="preserve">
<g id="Calque_1_1_">
</g>
<g id="Calque_2">
</g>
<g id="Calque_3">
	<g>
		
			<rect x="12.875" y="11.959" fill="none" stroke="#1D1D1B" stroke-width="2" stroke-miterlimit="10" width="24.789" height="7.29"/>
		<path fill="none" stroke="#1D1D1B" stroke-width="3" stroke-miterlimit="10" d="M49.039,92.769c0,4.498-2,8.145-4.467,8.145H5.967
			c-2.467,0-4.467-3.646-4.467-8.145V27.395c0-4.498,2-8.146,4.467-8.146h38.605c2.467,0,4.467,3.647,4.467,8.146V92.769z"/>
		<rect x="1.5" y="44.623" fill="#1D1D1B" width="47.539" height="29.166"/>
		<path fill="#1D1D1B" d="M40.582,11.342c0,0.756,0.316,2.367-1.459,2.367H11.414c-1.771,0-1.457-1.611-1.457-2.367V2.367
			C9.957,1.611,9.643,0,11.414,0h27.709c1.775,0,1.459,1.611,1.459,2.367V11.342z"/>
	</g>
</g>
<g id="Calque_4">
</g>
</svg>
